<?xml version="1.0" encoding="UTF-8" standalone="no"?>
<!DOCTYPE svg PUBLIC "-//W3C//DTD SVG 20010904//EN"
              "http://www.w3.org/TR/2001/REC-SVG-20010904/DTD/svg10.dtd">

<svg xmlns="http://www.w3.org/2000/svg"
     width="54.403mm" height="73.4547mm"
     viewBox="0 0 257 347">
  <path id="Selección"
        fill="#FEB93F" stroke="black" stroke-width="1"
        d="M 57.00,8.00
           C 63.16,10.05 67.99,14.80 73.00,18.80
             78.91,23.53 85.53,27.77 89.96,34.00
             89.96,34.00 103.34,55.00 103.34,55.00
             104.99,57.53 107.79,62.48 110.21,64.02
             113.09,65.85 125.40,66.72 129.00,66.49
             133.12,66.23 142.59,66.05 145.79,64.02
             148.16,62.51 150.42,58.42 152.00,56.00
             152.00,56.00 163.42,38.00 163.42,38.00
             169.94,27.62 174.71,25.43 184.00,18.00
             188.74,14.20 193.16,9.94 199.00,8.00
             199.00,8.00 216.90,34.00 216.90,34.00
             218.63,37.48 219.97,45.83 220.80,50.00
             222.59,58.93 224.99,67.85 224.96,77.00
             224.96,77.00 224.96,89.00 224.96,89.00
             224.96,89.00 224.00,100.00 224.00,100.00
             224.00,100.00 224.00,121.00 224.00,121.00
             224.00,121.00 223.41,131.00 223.41,131.00
             223.41,131.00 227.67,146.00 227.67,146.00
             227.67,146.00 244.67,199.00 244.67,199.00
             246.15,203.45 251.47,217.07 250.31,221.00
             249.47,223.84 246.08,226.91 244.00,229.00
             244.00,229.00 229.00,243.58 229.00,243.58
             229.00,243.58 197.00,275.00 197.00,275.00
             197.00,275.00 186.00,285.04 186.00,285.04
             186.00,285.04 158.00,312.99 158.00,312.99
             158.00,312.99 144.00,326.00 144.00,326.00
             141.21,328.78 131.42,339.80 128.00,339.80
             124.58,339.80 114.79,328.78 112.00,326.00
             112.00,326.00 98.00,312.99 98.00,312.99
             98.00,312.99 70.00,285.03 70.00,285.03
             70.00,285.03 59.00,275.00 59.00,275.00
             59.00,275.00 27.00,243.58 27.00,243.58
             27.00,243.58 12.00,229.00 12.00,229.00
             9.92,226.91 6.53,223.84 5.69,221.00
             4.54,217.11 9.56,204.33 11.00,200.00
             11.00,200.00 27.66,148.00 27.66,148.00
             27.66,148.00 32.64,131.00 32.64,131.00
             32.64,131.00 32.00,118.00 32.00,118.00
             32.00,118.00 32.00,94.00 32.00,94.00
             32.00,94.00 31.00,80.00 31.00,80.00
             30.88,69.29 33.32,60.41 35.40,50.00
             36.15,46.25 37.71,36.97 39.12,34.00
             39.12,34.00 57.00,8.00 57.00,8.00 Z
           M 241.00,219.00
           C 241.00,219.00 228.88,168.00 228.88,168.00
             228.88,168.00 220.79,135.00 220.79,135.00
             220.79,135.00 204.42,105.00 204.42,105.00
             204.42,105.00 193.23,85.00 193.23,85.00
             193.23,85.00 186.61,75.02 186.61,75.02
             186.61,75.02 169.00,72.58 169.00,72.58
             169.00,72.58 121.00,68.80 121.00,68.80
             121.00,68.80 115.00,69.80 115.00,69.80
             115.00,69.80 83.00,72.98 83.00,72.98
             83.00,72.98 68.63,75.60 68.63,75.60
             68.63,75.60 62.23,86.00 62.23,86.00
             62.23,86.00 51.58,105.00 51.58,105.00
             51.58,105.00 35.21,135.00 35.21,135.00
             35.21,135.00 27.12,168.00 27.12,168.00
             27.12,168.00 15.00,219.00 15.00,219.00
             15.00,219.00 43.00,242.25 43.00,242.25
             43.00,242.25 97.00,287.87 97.00,287.87
             97.00,287.87 119.00,306.42 119.00,306.42
             119.00,306.42 128.00,312.14 128.00,312.14
             128.00,312.14 137.00,306.42 137.00,306.42
             137.00,306.42 159.00,287.87 159.00,287.87
             159.00,287.87 213.00,242.25 213.00,242.25
             213.00,242.25 241.00,219.00 241.00,219.00 Z
           M 83.00,129.00
           C 90.81,129.02 90.99,129.25 98.00,132.75
             107.91,137.70 108.64,138.31 114.15,148.00
             115.97,151.19 118.02,154.17 117.42,158.00
             116.98,160.82 112.69,169.88 111.31,173.00
             111.31,173.00 99.58,201.00 99.58,201.00
             97.32,206.38 94.06,212.37 93.00,218.00
             93.00,218.00 113.00,209.66 113.00,209.66
             120.81,207.56 134.08,207.67 142.00,209.66
             142.00,209.66 163.00,218.00 163.00,218.00
             163.00,218.00 145.77,176.00 145.77,176.00
             143.99,172.10 138.23,159.64 138.57,156.00
             138.82,153.33 140.69,150.31 142.00,148.00
             147.99,137.50 148.11,137.64 159.00,132.25
             163.85,129.85 167.63,127.88 173.00,130.00
             165.70,131.40 165.18,131.89 159.00,136.00
             150.84,141.42 150.07,141.44 145.00,150.00
             144.02,151.66 142.46,154.09 142.23,156.00
             141.80,159.50 147.49,169.31 149.14,173.00
             149.14,173.00 163.10,203.00 163.10,203.00
             163.10,203.00 170.36,219.00 170.36,219.00
             172.04,225.01 166.39,241.62 166.00,250.00
             166.00,250.00 197.00,228.66 197.00,228.66
             202.72,224.77 209.81,220.61 217.00,223.00
             205.60,224.61 201.58,229.75 193.00,236.92
             193.00,236.92 163.00,262.17 163.00,262.17
             151.81,272.28 151.00,276.34 136.00,281.33
             134.11,281.96 130.89,283.13 129.00,283.30
             126.17,283.56 123.64,282.54 121.00,281.67
             106.40,276.84 106.08,274.29 95.00,264.08
             95.00,264.08 64.00,237.80 64.00,237.80
             64.00,237.80 49.00,225.81 49.00,225.81
             49.00,225.81 39.00,222.00 39.00,222.00
             39.00,222.00 51.00,223.72 51.00,223.72
             51.00,223.72 90.00,249.00 90.00,249.00
             89.57,239.58 83.88,225.46 85.64,219.00
             85.64,219.00 94.75,199.00 94.75,199.00
             94.75,199.00 106.41,174.00 106.41,174.00
             108.49,169.71 114.42,159.39 113.40,155.00
             111.16,145.34 99.44,136.41 91.00,132.26
             91.00,132.26 83.00,129.00 83.00,129.00 Z
           M 73.00,146.00
           C 76.12,144.66 79.68,142.71 83.00,142.21
             95.25,140.35 101.08,150.40 103.00,161.00
             92.81,162.34 94.73,161.59 85.00,159.42
             82.85,158.94 79.34,158.48 77.65,157.10
             75.05,154.98 73.58,149.20 73.00,146.00 Z
           M 153.00,161.00
           C 154.92,150.40 160.75,140.35 173.00,142.21
             176.32,142.71 179.88,144.66 183.00,146.00
             182.42,149.20 180.95,154.98 178.35,157.10
             176.66,158.48 173.15,158.94 171.00,159.42
             161.27,161.59 163.19,162.34 153.00,161.00 Z
           M 107.00,218.00
           C 103.17,219.10 95.24,222.38 93.60,226.21
             92.08,229.75 93.97,239.92 94.58,244.00
             95.04,247.09 95.20,254.81 98.29,256.25
             100.94,257.48 104.47,255.94 107.00,255.05
             111.49,253.48 120.74,249.75 125.00,250.00
             125.00,250.00 127.00,238.00 127.00,238.00
             124.28,238.00 119.51,238.33 117.21,236.98
             113.79,234.96 108.97,222.18 107.00,218.00 Z
           M 129.00,238.00
           C 129.01,240.60 128.77,244.49 130.17,246.73
             132.03,249.69 142.38,252.70 146.00,254.05
             149.11,255.21 154.56,257.91 157.69,255.96
             160.88,253.98 160.94,246.48 161.42,243.00
             161.85,239.90 163.84,228.40 162.81,226.21
             161.13,222.65 152.69,219.06 149.00,218.00
             147.43,221.65 141.73,235.20 138.78,236.98
             136.52,238.33 131.68,238.00 129.00,238.00 Z
           M 143.00,229.00
           C 143.00,229.00 142.00,229.00 142.00,229.00
             142.00,229.00 143.00,230.00 143.00,230.00
             143.00,230.00 143.00,229.00 143.00,229.00 Z
           M 141.00,233.00
           C 141.00,233.00 140.00,233.00 140.00,233.00
             140.00,233.00 141.00,234.00 141.00,234.00
             141.00,234.00 141.00,233.00 141.00,233.00 Z
           M 129.00,249.00
           C 129.00,249.00 103.00,264.00 103.00,264.00
             106.10,267.10 110.10,271.55 114.00,273.43
             121.07,276.83 136.18,276.79 143.00,272.91
             147.32,270.46 150.90,266.43 153.00,262.00
             146.79,259.37 132.21,254.50 129.00,249.00 Z" />
</svg>
